<svg xmlns="http://www.w3.org/2000/svg" viewBox="0 0 169 44"><g id="Layer_2" data-name="Layer 2"><g id="Layer_1-2" data-name="Layer 1"><g id="Aputure_Logo_SVG" data-name="Aputure Logo SVG"><g id="Group_39" data-name="Group 39"><g id="Group_42" data-name="Group 42"><g id="Heading"><path d="M65.55,27.46h-8l-1.32,3.86H52L59.22,11h4.69l7.23,20.32H66.88ZM64.46,24.2l-2.91-8.49-2.9,8.49Z" fill="#333"/><path d="M77.86,17.54A6.09,6.09,0,0,1,80,15.71,6.51,6.51,0,0,1,83.13,15a6.82,6.82,0,0,1,3.68,1,6.93,6.93,0,0,1,2.62,2.91,9.07,9.07,0,0,1,1,4.33,9.43,9.43,0,0,1-1,4.39,7.14,7.14,0,0,1-2.62,2.94,6.67,6.67,0,0,1-3.68,1.05A6.52,6.52,0,0,1,80,30.86,6.92,6.92,0,0,1,77.86,29V39h-4V15.22h4Zm8.44,5.67a4.85,4.85,0,0,0-.61-2.5,3.94,3.94,0,0,0-1.55-1.63,4.09,4.09,0,0,0-4.15,0,4.21,4.21,0,0,0-1.55,1.63,5.81,5.81,0,0,0,0,5.06A4.44,4.44,0,0,0,80,27.46a4.18,4.18,0,0,0,2.08.55,3.88,3.88,0,0,0,2.07-.58,4.15,4.15,0,0,0,1.55-1.66A5.08,5.08,0,0,0,86.3,23.21Z" fill="#333"/><path d="M108.39,15.22v16.1h-4.06v-2a5.48,5.48,0,0,1-2,1.66,6.43,6.43,0,0,1-2.71.58,6.75,6.75,0,0,1-3.31-.79A5.91,5.91,0,0,1,94,28.39a8,8,0,0,1-.8-3.72V15.22h4v8.86a4.29,4.29,0,0,0,1,3,3.84,3.84,0,0,0,5.21,0,4.29,4.29,0,0,0,1-3V15.22Z" fill="#333"/><path d="M117.06,18.56v7.79a1.63,1.63,0,0,0,.37,1.19,2,2,0,0,0,1.32.35h1.87v3.43h-2.53c-3.4,0-5.09-1.66-5.09-5V18.56h-1.9V15.22H113v-4h4.06v4h3.56v3.34Z" fill="#333"/><path d="M138.57,15.22v16.1h-4.06v-2a5.48,5.48,0,0,1-2,1.66,6.39,6.39,0,0,1-2.71.58,6.71,6.71,0,0,1-3.3-.79,5.87,5.87,0,0,1-2.28-2.35,8,8,0,0,1-.8-3.72V15.22h4v8.86a4.29,4.29,0,0,0,.94,3,3.84,3.84,0,0,0,5.21,0,4.24,4.24,0,0,0,.95-3V15.22Z" fill="#333"/><path d="M146.57,17.72a5.64,5.64,0,0,1,2-2,5.71,5.71,0,0,1,2.88-.73v4.28H150.4a4.14,4.14,0,0,0-2.88.9,4.24,4.24,0,0,0-1,3.14v8h-4V15.22h4Z" fill="#333"/><path d="M169,22.92a9.28,9.28,0,0,1-.12,1.57H157.23a4,4,0,0,0,1.21,2.73,3.7,3.7,0,0,0,2.62,1,3.28,3.28,0,0,0,3.19-1.95h4.35A7.42,7.42,0,0,1,166,30.1a7.72,7.72,0,0,1-4.81,1.49,8.41,8.41,0,0,1-4.14-1,7.47,7.47,0,0,1-2.85-2.94,9.14,9.14,0,0,1-1-4.36,9.21,9.21,0,0,1,1-4.39A7.06,7.06,0,0,1,157,16a8.37,8.37,0,0,1,4.17-1,8.22,8.22,0,0,1,4.06,1A6.77,6.77,0,0,1,168,18.76,8.4,8.4,0,0,1,169,22.92Zm-4.17-1.16a3.22,3.22,0,0,0-1.12-2.5,3.93,3.93,0,0,0-2.68-1,3.64,3.64,0,0,0-2.53.93,4,4,0,0,0-1.24,2.53Z" fill="#333"/></g><path id="Vector" d="M16,14V.93A21.37,21.37,0,0,1,34,3.59Z" fill="#ec5f5f"/><path id="Vector_2" data-name="Vector 2" d="M.06,21,18,31.42,6.72,38A21.79,21.79,0,0,1,.06,21Z" fill="#ec5f5f"/><path id="Vector_3" data-name="Vector 3" d="M28,30V43.07a21.44,21.44,0,0,1-18-2.66Z" fill="#ec5f5f"/><path id="Vector_4" data-name="Vector 4" d="M43.82,23,26,12.59,37.22,6C41.25,9.13,44.86,18.39,43.82,23Z" fill="#ec5f5f"/><path id="Vector_5" data-name="Vector 5" d="M32,42V21l11,6.62A22.43,22.43,0,0,1,32,42Z" fill="#ec5f5f"/><path id="Vector_6" data-name="Vector 6" d="M1,16.39A22.47,22.47,0,0,1,12,2V23Z" fill="#ec5f5f"/><path id="Vector_7" data-name="Vector 7" d="M22,16a6,6,0,0,1,1.16,11.88,5.86,5.86,0,0,1-3.46-.34,6,6,0,0,1-3.25-7.83,5.85,5.85,0,0,1,1.3-1.95,6,6,0,0,1,1.95-1.3A5.87,5.87,0,0,1,22,16Z" fill="#ec5f5f"/></g></g></g></g></g></svg>